<?xml version="1.0" encoding="utf-8"?>
<!-- Generator: Adobe Illustrator 27.1.1, SVG Export Plug-In . SVG Version: 6.00 Build 0)  -->
<svg version="1.1" id="Layer_1" xmlns="http://www.w3.org/2000/svg" xmlns:xlink="http://www.w3.org/1999/xlink" x="0px" y="0px"
	 viewBox="0 0 338 262" style="enable-background:new 0 0 338 262;" xml:space="preserve">
<style type="text/css">
	.st0{fill:#C4C4C4;}
	.st1{fill:#FFFFFF;}
	.st2{fill:#6B6B6B;}
	.st3{fill:#333333;}
	.st4{fill:#232323;}
</style>
<g>
	<g>
		<path class="st0" d="M213.24,199.52l27.37-59.14c0.46-1,1.46-1.63,2.55-1.63h45.85c1.25,0,2.08,1.29,1.56,2.43l-27.02,59.48
			L213.24,199.52z"/>
	</g>
	<g>
		<path class="st1" d="M243.26,142.37l-25.5,55.89h43.39l24.58-54.76c0.4-0.9-0.25-1.92-1.24-1.92H244.5
			C243.97,141.57,243.48,141.88,243.26,142.37z"/>
	</g>
	<g>
		<path class="st2" d="M179.89,198.64h-4.5v-1.16c0-0.64,0.52-1.15,1.15-1.15h2.2c0.64,0,1.15,0.52,1.15,1.15V198.64z"/>
	</g>
	<g>
		<path class="st2" d="M198.87,198.64h-4.5v-1.16c0-0.64,0.52-1.15,1.15-1.15h2.2c0.64,0,1.15,0.52,1.15,1.15V198.64z"/>
	</g>
	<g>
		<path class="st2" d="M189.18,198.64h-4.5v0c0-0.64,0.52-1.15,1.15-1.15h2.2C188.66,197.48,189.18,198,189.18,198.64L189.18,198.64
			z"/>
	</g>
	<g>
		<polygon class="st3" points="229.75,75.69 229.35,86.32 237.47,78.53 		"/>
	</g>
	<g>
		<path class="st0" d="M241.37,167.18h5.04c0.3,0,0.57,0.17,0.7,0.44l1.88,3.88c0.23,0.48,0.86,0.59,1.24,0.22l9.42-9.08
			c0.15-0.14,0.34-0.22,0.54-0.22h6.35c0.69,0,1.04,0.83,0.56,1.33l-18.87,19.21c-0.39,0.39-1.05,0.27-1.27-0.23l-6.31-14.46
			C240.43,167.76,240.81,167.18,241.37,167.18z"/>
	</g>
	<g>
		<path d="M206.03,181.55c-0.1,0-0.19-0.05-0.25-0.13c-0.09-0.13-8.82-13.17-11-31.23c-1.28-10.61-0.07-20.86,3.58-30.45
			c4.56-11.98,12.97-22.97,25-32.65c0.13-0.1,0.32-0.08,0.42,0.05c0.1,0.13,0.08,0.32-0.05,0.42
			c-11.94,9.61-20.29,20.51-24.81,32.39c-3.62,9.5-4.81,19.64-3.55,30.16c2.15,17.92,10.81,30.86,10.9,30.99
			c0.09,0.14,0.06,0.32-0.08,0.41C206.15,181.53,206.09,181.55,206.03,181.55z"/>
	</g>
	<g>
		<path d="M221.89,151.49c-0.1,0-0.21-0.06-0.26-0.15c-0.04-0.07-4.1-7.51-5.43-18.65c-1.23-10.29-0.32-25.95,10.98-42.12
			c0.09-0.14,0.28-0.17,0.41-0.07c0.13,0.09,0.17,0.28,0.07,0.41c-11.18,16.01-12.08,31.5-10.88,41.68
			c1.31,11.04,5.32,18.39,5.36,18.46c0.08,0.14,0.03,0.33-0.12,0.4C221.98,151.47,221.93,151.49,221.89,151.49z"/>
	</g>
	<g>
		<polygon class="st0" points="218.6,72.26 229.75,77.01 242.41,88.56 255.41,56.95 		"/>
	</g>
	<g>
		
			<rect x="226.29" y="66.69" transform="matrix(0.7879 -0.6158 0.6158 0.7879 10.2065 163.5974)" class="st1" width="32.58" height="0.59"/>
	</g>
	<g>
		<path class="st0" d="M261.15,203.06H161.5c-1.33,0-2.4-1.07-2.4-2.4l0,0c0-1.33,1.07-2.4,2.4-2.4h99.65c1.33,0,2.4,1.07,2.4,2.4
			l0,0C263.55,201.98,262.48,203.06,261.15,203.06z"/>
	</g>
	<g>
		<path class="st1" d="M253.8,201.47h-6.06c-0.47,0-0.84-0.38-0.84-0.84l0,0c0-0.47,0.38-0.84,0.84-0.84h6.06
			c0.47,0,0.84,0.38,0.84,0.84l0,0C254.64,201.09,254.27,201.47,253.8,201.47z"/>
	</g>
	<g>
		<circle class="st1" cx="257.94" cy="200.66" r="0.88"/>
	</g>
	<g>
		<path class="st1" d="M108.69,175.96c0,0,28.76-21.95,37.17-33.33c0,0-2.32-11.13,1-14.27c3.32-3.14,6.74-0.28,6.74-0.28
			s5.33-4.07,9.45,0.51c0,0,3.23-0.14,3.51,3.27c0,0,2.95,0.37,2.34,4.26c0,0,1.54-0.2,0.85,4.4c-0.69,4.6-16.49,33.63-16.49,33.63
			L108.69,175.96z"/>
		<path d="M107.76,176.3l0.75-0.57c0.29-0.22,28.65-21.92,37.03-33.16c-0.26-1.33-2.12-11.35,1.12-14.41
			c3.02-2.86,6.16-0.98,6.95-0.43c0.99-0.67,5.78-3.52,9.58,0.59c0.65,0.02,3.28,0.31,3.65,3.32c0.39,0.1,1.17,0.39,1.75,1.16
			c0.58,0.78,0.8,1.82,0.65,3.11c0.12,0.04,0.25,0.12,0.38,0.25c0.63,0.64,0.78,2.13,0.44,4.43c-0.69,4.6-15.88,32.55-16.52,33.73
			l-0.08,0.15l-0.17,0.01L107.76,176.3z M150.29,127.19c-0.98,0-2.11,0.34-3.22,1.4c-3.16,2.99-0.94,13.88-0.92,13.99l0.03,0.13
			l-0.08,0.11c-7.58,10.25-31.91,29.28-36.48,32.82l43.46-1.75c1.22-2.25,15.73-29.06,16.38-33.39c0.4-2.7,0.02-3.61-0.25-3.9
			c-0.15-0.17-0.28-0.16-0.28-0.16l-0.36,0.01l0.04-0.36c0.2-1.25,0.03-2.23-0.49-2.93c-0.63-0.84-1.58-0.98-1.59-0.98l-0.24-0.03
			l-0.02-0.24c-0.25-3.08-3.07-3.01-3.2-3l-0.14,0.01l-0.09-0.1c-1.63-1.81-3.64-2.45-5.98-1.89c-1.77,0.43-3.06,1.4-3.07,1.41
			l-0.19,0.14l-0.18-0.15C153.33,128.24,152.02,127.19,150.29,127.19z"/>
	</g>
	<g>
		<path d="M159.8,146.38c-0.49,0-0.97-0.26-1.42-0.78c-1.15-1.34-0.51-4.96,1.31-7.44c2.17-2.95,5.45-3.77,9.01-2.24
			c0.15,0.06,0.22,0.24,0.16,0.39c-0.07,0.15-0.24,0.22-0.39,0.16c-4.49-1.93-7.12,0.46-8.29,2.05c-1.76,2.4-2.21,5.69-1.34,6.7
			c0.36,0.41,0.69,0.6,1.03,0.57c0.91-0.07,1.87-1.65,2.71-3.05c0.25-0.41,0.5-0.82,0.74-1.19c0.57-0.86,1.23-1.36,1.96-1.5
			c0.91-0.17,1.58,0.29,1.61,0.31c0.13,0.09,0.17,0.28,0.07,0.41c-0.09,0.13-0.28,0.17-0.41,0.08c-0.01,0-0.51-0.34-1.17-0.21
			c-0.57,0.11-1.09,0.53-1.57,1.24c-0.24,0.36-0.48,0.76-0.73,1.17c-0.97,1.59-1.97,3.23-3.17,3.33
			C159.87,146.38,159.83,146.38,159.8,146.38z"/>
	</g>
	<g>
		<path d="M157.91,143.59c-0.05,0-0.09-0.01-0.14-0.03c-0.62-0.33-1.78-1.34-2.23-3.08c-0.31-1.18-0.35-3.09,1.19-5.45
			c3.25-4.99,9.82-3.45,9.89-3.44c0.16,0.04,0.26,0.2,0.22,0.36c-0.04,0.16-0.2,0.25-0.36,0.22c-0.06-0.02-6.23-1.44-9.25,3.18
			c-1.14,1.75-1.52,3.43-1.12,4.98c0.4,1.54,1.43,2.44,1.93,2.7c0.15,0.08,0.2,0.26,0.12,0.4
			C158.12,143.53,158.02,143.59,157.91,143.59z"/>
	</g>
	<g>
		<path d="M156,141.21c-0.05,0-0.09-0.01-0.14-0.03c-0.13-0.07-3.14-1.73-2.18-6.73c0.95-5,8.8-6.05,9.14-6.09
			c0.17-0.02,0.31,0.09,0.33,0.26c0.02,0.16-0.09,0.31-0.26,0.33c-0.08,0.01-7.75,1.04-8.63,5.61c-0.87,4.55,1.77,6.04,1.88,6.1
			c0.14,0.08,0.2,0.26,0.12,0.4C156.21,141.16,156.1,141.21,156,141.21z"/>
	</g>
	<g>
		<path d="M148.99,147.78c-0.06,0-0.11-0.02-0.17-0.05c-0.12-0.08-3.01-2.05-3.26-5.07c-0.01-0.16,0.11-0.31,0.27-0.32
			c0.16-0.01,0.31,0.11,0.32,0.27c0.23,2.74,2.98,4.61,3,4.63c0.14,0.09,0.17,0.28,0.08,0.41
			C149.18,147.73,149.09,147.78,148.99,147.78z"/>
	</g>
	<g>
		<path d="M153.63,144.97c-0.09,0-0.18-0.04-0.24-0.12c-0.1-0.13-0.08-0.32,0.05-0.42c0.43-0.33,2.6-2,3.48-1.95
			c0.16,0.01,0.29,0.15,0.28,0.31c-0.01,0.16-0.14,0.3-0.31,0.28c0,0-0.01,0-0.02,0c-0.5,0-2.09,1.06-3.07,1.82
			C153.76,144.95,153.69,144.97,153.63,144.97z"/>
	</g>
	<g>
		<path d="M148.03,133.98c-0.15,0-0.28-0.11-0.29-0.26c-0.01-0.1-0.11-0.97,0.36-1.48c0.22-0.24,0.53-0.37,0.9-0.35
			c0.46,0.02,0.89,0.26,1.38,0.53c0.93,0.52,1.99,1.11,3.63,0.51c0.15-0.06,0.33,0.02,0.38,0.18c0.06,0.15-0.02,0.33-0.18,0.38
			c-1.89,0.7-3.18-0.02-4.13-0.54c-0.43-0.24-0.8-0.45-1.11-0.46c-0.19-0.01-0.34,0.04-0.44,0.16c-0.24,0.27-0.24,0.82-0.21,1.01
			c0.02,0.16-0.1,0.31-0.26,0.33C148.06,133.98,148.04,133.98,148.03,133.98z"/>
	</g>
	<g>
		<path d="M155.41,131.71c-0.15,0-0.27-0.11-0.29-0.26c0-0.02-0.32-2.25-1.68-3.12c-0.14-0.09-0.18-0.27-0.09-0.41
			c0.09-0.14,0.27-0.18,0.41-0.09c1.6,1.01,1.93,3.44,1.95,3.54c0.02,0.16-0.09,0.31-0.26,0.33
			C155.44,131.71,155.42,131.71,155.41,131.71z"/>
	</g>
	<g>
		<path d="M136.49,55.26c-19.06-1.24-23.52,12.78-27.22,19.22c-3.7,6.45-14.81,15.76-33.55,17.08
			c-18.75,1.31-18.75,19.82-18.87,32.72s-6.3,28.76-8.96,37.26c-2.37,7.55,1.43,29.14,22.21,29.02
			c20.78-0.12,81.16-122.89,81.16-122.89S146.49,55.91,136.49,55.26z"/>
	</g>
	<g>
		<path class="st1" d="M126.08,79.73c0,0,5.8-4.95,6.58-23.43c0.06-1.35,1.03-2.51,2.36-2.75c1.92-0.35,4.56-0.2,5.86,2.72
			c2.18,4.9-12.11,25.63-12.11,25.63L126.08,79.73z"/>
		<path d="M128.83,82.34l-3.22-2.6l0.27-0.23c0.01-0.01,1.44-1.27,2.95-4.74c1.39-3.21,3.13-9.02,3.53-18.47
			c0.06-1.49,1.16-2.77,2.6-3.03c2.07-0.38,4.82-0.18,6.19,2.89c2.23,5-11.55,25.07-12.14,25.92L128.83,82.34z M126.53,79.71
			l2.18,1.76c0.77-1.13,3.84-5.71,6.68-10.69c5.39-9.47,5.81-13.05,5.22-14.38c-1.21-2.72-3.68-2.89-5.53-2.55
			c-1.17,0.21-2.06,1.25-2.11,2.47C132.27,72.72,127.68,78.5,126.53,79.71z"/>
	</g>
	<g>
		<path class="st1" d="M155.2,81.9c0,0,0,0,0.07,9.96c0.07,9.82-13.46,5.67-13.86,5.56l-0.11,0.13c-1.49,1.42-2.7,3.5-3.66,5.92
			h-0.01c-3.86,9.71-4.24,24.9-4.24,24.9s-27.19-14.44-21.84-19.52c5.35-5.09,11.83-19.26,11.83-19.26s-8.49-3.08-4.01-9.56
			c3.14-4.55,10.09,1.14,10.09,1.14c6.42-0.87,14.04-7.02,14.04-7.02s-0.47,3.14,1.33,2.88c1.8-0.27,3.95-5.01,4.14-6.22
			c0.2-1.2-2.2-0.67-1.87-0.93c0.33-0.27,2.85-3.94,2.85-3.94s1.83,2.61,3.24,7.56c1.4,4.94,2.47,3.34,3.8,5.28
			C158.34,80.7,155.2,81.9,155.2,81.9z"/>
		<path d="M133.67,128.85l-0.43-0.23c-0.89-0.47-21.83-11.66-22.67-17.82c-0.12-0.85,0.14-1.59,0.76-2.18
			c4.83-4.59,10.69-16.86,11.63-18.88c-0.99-0.42-4.11-1.92-4.98-4.66c-0.52-1.63-0.14-3.39,1.14-5.23
			c0.73-1.05,1.71-1.67,2.91-1.84c3.15-0.46,6.84,2.31,7.51,2.84c6.24-0.91,13.69-6.88,13.77-6.94l0.59-0.48l-0.11,0.75
			c-0.07,0.49-0.15,1.86,0.35,2.36c0.16,0.16,0.37,0.21,0.64,0.18c1.54-0.23,3.69-4.74,3.89-5.98c0.03-0.15-0.01-0.22-0.04-0.25
			c-0.19-0.23-0.84-0.24-1.18-0.24c-0.35-0.01-0.58-0.01-0.66-0.25l-0.07-0.2l0.19-0.18c0.21-0.18,1.59-2.13,2.79-3.88l0.24-0.35
			l0.25,0.35c0.08,0.11,1.88,2.71,3.28,7.65c0.88,3.11,1.59,3.51,2.34,3.94c0.43,0.24,0.92,0.52,1.42,1.25
			c0.37,0.54,0.47,1.08,0.31,1.61c-0.32,1.03-1.57,1.68-2.06,1.9l0.07,9.76c0.02,2.38-0.75,4.17-2.28,5.32
			c-3.55,2.67-10.15,1.04-11.79,0.57c-1.37,1.3-2.57,3.26-3.59,5.82l-0.08,0.19c-3.73,9.56-4.14,24.46-4.15,24.61L133.67,128.85z
			 M122.74,78.57c-0.21,0-0.42,0.01-0.62,0.04c-1.03,0.15-1.88,0.68-2.5,1.59c-1.16,1.68-1.52,3.27-1.06,4.71
			c0.93,2.92,4.88,4.38,4.92,4.4l0.3,0.11l-0.13,0.29c-0.27,0.58-6.57,14.28-11.9,19.35c-0.48,0.46-0.67,1-0.58,1.67
			c0.74,5.4,18.92,15.51,21.94,17.15c0.11-2.67,0.79-15.84,4.25-24.52l0.08-0.19c1.04-2.56,2.27-4.53,3.66-5.84l0.22-0.25l0.18,0.05
			c1.34,0.39,8.01,2.17,11.44-0.42c1.37-1.03,2.05-2.66,2.04-4.84L154.9,81.7l0.19-0.07c0.02-0.01,1.6-0.62,1.9-1.6
			c0.11-0.35,0.03-0.71-0.23-1.1c-0.43-0.62-0.81-0.84-1.22-1.07c-0.82-0.47-1.68-0.95-2.62-4.29c-1.08-3.8-2.43-6.22-2.96-7.1
			c-0.6,0.87-1.68,2.43-2.28,3.2c0.49,0.01,1.11,0.07,1.43,0.45c0.11,0.14,0.23,0.37,0.17,0.73c-0.19,1.15-2.34,6.16-4.39,6.47
			c-0.46,0.07-0.86-0.05-1.15-0.34c-0.52-0.53-0.6-1.5-0.58-2.17c-1.86,1.42-8.13,5.92-13.65,6.66l-0.13,0.02l-0.1-0.08
			C129.24,81.37,125.77,78.57,122.74,78.57z"/>
	</g>
	<g>
		<path d="M141.39,97.1c-1.49,1.42-2.7,3.5-3.66,5.92h-0.01c-8.15-4.86-6.28-13.06-5.1-10.7C133.81,94.69,141.39,97.1,141.39,97.1z"
			/>
	</g>
	<g>
		<path class="st1" d="M69.33,163.01c0,0-20.91-15.08-8.69-20.25s31.91-21.57,39.07-27.84c7.15-6.27,20.61-14.09,23.68-4.51
			c3.06,9.57,6.03,13.75,10.38,15.18c0,0-3.03,42.37,0,47.54l3.88,30.58c0,0-46.65,10.06-75.56-3.67c0,0,14.95-27.69,16.52-31.8
			L69.33,163.01z"/>
		<path d="M101.89,207.56c-12.74,0-27.89-1.53-39.94-7.25l-0.28-0.13l0.15-0.28c0.15-0.27,14.44-26.76,16.41-31.53l-9.07-5.12
			c-0.55-0.39-13.36-9.71-12.62-16.32c0.22-1.92,1.56-3.42,3.98-4.45c13.71-5.8,36.44-25.56,38.99-27.79
			c4.61-4.04,13.99-10.45,19.92-8.8c2.05,0.57,3.48,2.06,4.24,4.43c2.99,9.36,5.85,13.56,10.19,14.99l0.22,0.07l-0.02,0.23
			c-0.03,0.42-2.99,42.34-0.04,47.37l0.04,0.11l3.91,30.85l-0.27,0.06c-0.12,0.03-11.86,2.53-26.99,3.32
			C107.97,207.47,105,207.56,101.89,207.56z M62.49,199.91c8.27,3.87,23.29,8.13,48.19,6.83c13.82-0.72,24.8-2.88,26.63-3.25
			l-3.84-30.25c-2.91-5.27-0.29-43.73-0.03-47.43c-4.42-1.56-7.34-5.89-10.35-15.3c-0.69-2.16-1.98-3.52-3.83-4.03
			c-4.94-1.37-13.51,3.54-19.37,8.68c-2.55,2.24-25.35,22.05-39.15,27.89c-2.21,0.94-3.43,2.27-3.62,3.97
			c-0.69,6.17,11.88,15.41,12.36,15.76l9.47,5.34l-0.09,0.24C77.38,172.25,64.14,196.84,62.49,199.91z"/>
	</g>
	<g>
		<path d="M108.93,174.35l-0.46-0.37c0.13-0.16,13.21-16.94,15.95-59.77l0.59,0.04c-1.44,22.48-5.72,37.61-9.06,46.35
			C112.31,170.08,108.96,174.31,108.93,174.35z"/>
	</g>
	<g>
		<path d="M58.92,145.25c-2.35,2.41,2.71,9.84,10.54,16.05l3.85-9.31C73.31,151.99,63.36,140.7,58.92,145.25z"/>
	</g>
	<g>
		<path class="st1" d="M73.31,152.47c0,0-27.11,50.91,27.91,56.02c8.71,0.47,28.21-0.31,47.83-8.51c19.61-8.2,22.5-9.44,22.5-9.44
			s0.12,3.16,2.33,3.22s2.74-2.16,2.74-2.16s0.41,3.44,2.8,3.44s2.92-3.97,2.92-3.97s1.92,6.01,4.49,6.01s1.97-18.66-8.93-22.92
			c-10.9-4.26-38.95-2.54-49.76-1.68c-10.81,0.86-19.22,2.4-21.27,2.06s-17.33-3.35-23.25-10.81
			C77.69,156.27,73.31,152.47,73.31,152.47z"/>
		<path d="M105.27,208.89c-1.91,0-3.3-0.06-4.07-0.1c-15.94-1.48-26.56-6.95-31.57-16.25c-8.95-16.6,3.29-39.98,3.42-40.21
			l0.18-0.33l0.28,0.24c0.04,0.04,4.47,3.9,10.34,11.3c6.19,7.81,22.9,10.67,23.06,10.7c1.05,0.17,3.97-0.18,8.01-0.67
			c3.62-0.44,8.13-0.99,13.19-1.39c11.38-0.9,39.02-2.54,49.89,1.7c9.18,3.58,11.03,16.98,10.18,21.46
			c-0.32,1.68-0.92,2.03-1.36,2.03c-2.1,0-3.73-3.47-4.42-5.23c-0.35,1.25-1.18,3.19-2.99,3.19c-1.8,0-2.58-1.68-2.9-2.77
			c-0.41,0.69-1.2,1.51-2.65,1.49c-1.76-0.05-2.43-1.85-2.59-3.08c-1.26,0.54-6.18,2.61-22.12,9.28
			C130.99,207.86,113.44,208.89,105.27,208.89z M73.4,152.95c-1.46,2.93-11.46,24.07-3.24,39.31c4.91,9.11,15.38,14.48,31.09,15.94
			c4.04,0.22,25.39,0.84,47.68-8.48c19.38-8.1,22.46-9.43,22.49-9.44l0.4-0.17l0.02,0.43c0,0.03,0.13,2.88,2.04,2.93
			c1.94,0.02,2.42-1.85,2.44-1.93l0.39-1.6l0.2,1.64c0,0.03,0.41,3.18,2.5,3.18c2.11,0,2.62-3.67,2.62-3.71l0.17-1.31l0.4,1.26
			c0.52,1.61,2.28,5.8,4.21,5.8c0.22,0,0.56-0.4,0.78-1.55c0.82-4.35-0.96-17.34-9.82-20.8c-10.76-4.2-38.29-2.56-49.63-1.66
			c-5.05,0.4-9.55,0.95-13.17,1.39c-4.24,0.52-7.04,0.86-8.18,0.67c-0.17-0.03-17.1-2.93-23.43-10.92
			C78.39,157.63,74.46,153.92,73.4,152.95z"/>
	</g>
	<g>
		<path d="M95.53,182.3c-0.06,0-0.12-0.02-0.17-0.05c-0.14-0.09-0.17-0.28-0.08-0.41c0.04-0.06,4.53-6.47,11.52-7.59
			c0.16-0.02,0.31,0.08,0.34,0.25c0.03,0.16-0.08,0.32-0.25,0.34c-6.74,1.08-11.08,7.28-11.13,7.34
			C95.72,182.26,95.63,182.3,95.53,182.3z"/>
	</g>
	<g>
		<path d="M176.61,191.9c-0.02,0-0.04,0-0.05,0c-0.16-0.03-0.27-0.18-0.24-0.35c0.87-4.78,0.29-8.28-1.74-10.41
			c-2.59-2.72-6.73-2.21-6.77-2.2c-0.17,0.02-0.31-0.09-0.33-0.26c-0.02-0.16,0.09-0.31,0.26-0.33c0.18-0.02,4.47-0.56,7.28,2.38
			c2.17,2.27,2.8,5.95,1.9,10.93C176.88,191.8,176.75,191.9,176.61,191.9z"/>
	</g>
	<g>
		<path d="M182.23,191.9c-0.02,0-0.05,0-0.07-0.01c-0.16-0.04-0.26-0.2-0.22-0.36c1.5-6.41,0.28-10.72-1.02-13.21
			c-1.4-2.69-3.18-3.9-3.2-3.91c-0.14-0.09-0.17-0.28-0.08-0.41c0.09-0.14,0.27-0.18,0.41-0.08c0.07,0.05,7.44,5.08,4.47,17.75
			C182.49,191.81,182.37,191.9,182.23,191.9z"/>
	</g>
	<g>
		<path d="M171.54,190.84c-0.16,0-0.3-0.13-0.3-0.29c0-0.02-0.02-1.87-0.21-2.8c-0.03-0.14-0.09-0.24-0.2-0.31
			c-0.32-0.21-0.92-0.14-1.12-0.1c-0.16,0.03-0.32-0.07-0.35-0.23c-0.03-0.16,0.07-0.32,0.23-0.35c0.1-0.02,0.99-0.2,1.57,0.18
			c0.24,0.16,0.41,0.4,0.46,0.69c0.2,0.99,0.22,2.83,0.22,2.91C171.84,190.71,171.71,190.84,171.54,190.84
			C171.54,190.84,171.54,190.84,171.54,190.84z"/>
	</g>
	<g>
		<path class="st4" d="M151.84,76.61c0.36-1.6-1.53-1.03-2.12-0.2c-0.59,0.84-3.45,3.05-3.89,3.05S150.86,81,151.84,76.61z"/>
	</g>
	<g>
		<path d="M151.17,89.41c-1.1,0-1.97-0.31-2.59-0.92c-1.17-1.15-1.02-2.92-1.03-2.99c-0.01-0.31,0.47-0.32,0.64-0.31
			c0.16,0.01,0.28,0.16,0.27,0.32c0,0.02-0.43,1.61,0.54,2.56c0.63,0.61,1.59,0.85,2.85,0.71c0.17-0.01,0.31,0.1,0.33,0.26
			c0.02,0.16-0.1,0.31-0.26,0.33C151.66,89.4,151.41,89.41,151.17,89.41z"/>
	</g>
	<g>
		<path d="M129.08,86.96c-0.14,0-0.27-0.1-0.29-0.25c-0.69-3.98-6.48-3.74-6.54-3.74c-0.16,0.01-0.3-0.12-0.31-0.28
			c-0.01-0.16,0.12-0.3,0.28-0.31c0.06-0.01,6.38-0.26,7.15,4.24c0.03,0.16-0.08,0.32-0.24,0.34
			C129.12,86.96,129.1,86.96,129.08,86.96z"/>
	</g>
	<g>
		<path d="M130.75,91.53c0,0-0.01,0-0.01,0c-0.21-0.01-5.21-0.27-7.09-1.55c-0.14-0.09-0.17-0.28-0.08-0.41
			c0.09-0.13,0.28-0.17,0.41-0.08c1.74,1.19,6.73,1.45,6.78,1.45c0.16,0.01,0.29,0.15,0.28,0.31
			C131.04,91.41,130.91,91.53,130.75,91.53z"/>
	</g>
</g>
</svg>
